<svg width="68" height="68" viewBox="0 0 68 68" fill="none" xmlns="http://www.w3.org/2000/svg">
  <path d="M34.0001 68C29.5351 68 25.1138 67.1205 20.9889 65.412C16.8637 63.7032 13.1156 61.1988 9.95839 58.0416C6.80119 54.8844 4.29676 51.1363 2.58811 47.0114C0.879436 42.8862 0 38.4649 0 34.0001C0 29.5351 0.879436 25.1137 2.58811 20.9888C4.29676 16.8636 6.80119 13.1155 9.95839 9.95834C13.1156 6.80117 16.8637 4.29676 20.9889 2.58808C25.1138 0.879436 29.5351 0 34.0001 0V17.1069C31.7675 17.1069 29.557 17.4397 27.4944 18.2941C25.4318 19.1483 23.5578 20.4006 21.9791 21.9791C20.4007 23.5578 19.1483 25.4317 18.294 27.4943C17.4398 29.5569 17.0001 31.7675 17.0001 34.0001C17.0001 36.2325 17.4398 38.443 18.294 40.5056C19.1483 42.5682 20.4007 44.4421 21.9791 46.0208C23.5578 47.5995 25.4318 48.8516 27.4944 49.706C29.557 50.5604 31.7675 50.9999 34.0001 50.9999V68Z" fill="#0C4E8C"/>
  <path d="M33.3585 0.000171661V17.1071L68 17.1071V0.000171661L33.3585 0.000171661Z" fill="#0C81E4"/>
  <path d="M68 17.1071H50.8931V51.321H68V17.1071Z" fill="#4FE7AF"/>
</svg>
